<?xml version="1.0" encoding="utf-8"?>
<!-- Generator: Adobe Illustrator 24.1.0, SVG Export Plug-In . SVG Version: 6.00 Build 0)  -->
<svg version="1.1" id="Layer_1" xmlns="http://www.w3.org/2000/svg" xmlns:xlink="http://www.w3.org/1999/xlink" x="0px" y="0px"
	 viewBox="0 0 185.7 41" style="enable-background:new 0 0 185.7 41;" xml:space="preserve">
<style type="text/css">
	.st0{fill:#1F1F1F;}
</style>
<path class="st0" d="M0,0.7h27.5v6.6H18v33.1H9.5V7.3H0V0.7z"/>
<path class="st0" d="M32.5,40.3h-8.4L35.3,0.7h11.2l11.1,39.7h-9l-2.3-8.8H34.8L32.5,40.3z M44.6,25.4L40.5,8.3h-0.1l-3.9,17.1H44.6
	z"/>
<path class="st0" d="M82.1,40.3H60.8V0.7h8.5v33.1h12.7V40.3z"/>
<path class="st0" d="M98.5,35.1c4.8,0,5.4-4.4,5.4-14.6s-0.6-14.6-5.4-14.6c-4.8,0-5.4,4.4-5.4,14.6S93.7,35.1,98.5,35.1z M98.5,41
	c-14,0-14-10.1-14-20.5c0-10.5,0-20.5,14-20.5c14,0,14,10,14,20.5C112.6,30.9,112.6,41,98.5,41z"/>
<path class="st0" d="M126.6,40.3h-8.3V0.7H132l6.4,27h0.1l6.8-27h13.3v39.7h-8.3V9.7h-0.1l-7.8,30.6h-8.1l-7.4-30.6h-0.1V40.3z"/>
<path class="st0" d="M187.2,40.3h-22.7V0.7h22.2v6.1h-13.7v9.8h12.6v6.1h-12.6v11.6h14.2V40.3z"/>
</svg>
