<svg width="633" height="41" viewBox="0 0 633 41" fill="none" xmlns="http://www.w3.org/2000/svg">
<path d="M0 0.659515H27.4684V7.25469H17.9927V40.3405H9.47576V7.25469H0V0.659515Z" fill="#1F1F1F"/>
<path d="M32.4561 40.3405H24.052L35.3327 0.659515H46.557L57.612 40.3405H48.6439L46.3878 31.5469H34.7687L32.4561 40.3405ZM44.5829 25.4464L40.4654 8.29893H40.3526L36.4608 25.4464H44.5829Z" fill="#1F1F1F"/>
<path d="M82.0532 40.3405H60.7891V0.659515H69.306V33.7453H82.0532V40.3405Z" fill="#1F1F1F"/>
<path d="M98.5419 35.0643C103.336 35.0643 103.957 30.6676 103.957 20.5C103.957 10.3324 103.336 5.93566 98.5419 5.93566C93.7476 5.93566 93.1272 10.3324 93.1272 20.5C93.1272 30.6676 93.7476 35.0643 98.5419 35.0643ZM98.5419 41C84.4974 41 84.4975 30.8874 84.4975 20.5C84.4975 10.0027 84.4974 0 98.5419 0C112.586 0 112.586 10.0027 112.586 20.5C112.586 30.8874 112.586 41 98.5419 41Z" fill="#1F1F1F"/>
<path d="M126.593 40.3405H118.302V0.659515H132.008L138.381 27.6448H138.494L145.262 0.659515H158.517V40.3405H150.226V9.72788H150.113L142.273 40.3405H134.151L126.706 9.72788H126.593V40.3405Z" fill="#1F1F1F"/>
<path d="M187.227 40.3405H164.553V0.659515H186.776V6.76005H173.07V16.5429H185.704V22.6434H173.07V34.2399H187.227V40.3405Z" fill="#1F1F1F"/>
<path d="M256.165 0.659515H283.633V7.25469H274.158V40.3405H265.641V7.25469H256.165V0.659515Z" fill="#1F1F1F"/>
<path d="M288.621 40.3405H280.217L291.498 0.659515H302.722L313.777 40.3405H304.809L302.553 31.5469H290.934L288.621 40.3405ZM300.748 25.4464L296.63 8.29893H296.518L292.626 25.4464H300.748Z" fill="#1F1F1F"/>
<path d="M338.218 40.3405H316.954V0.659515H325.471V33.7453H338.218V40.3405Z" fill="#1F1F1F"/>
<path d="M363.731 40.3405H341.057V0.659515H363.28V6.76005H349.574V16.5429H362.209V22.6434H349.574V34.2399H363.731V40.3405Z" fill="#1F1F1F"/>
<path d="M376.366 40.3405H368.413V0.659515H379.919L390.749 28.1394H390.861V0.659515H398.814V40.3405H387.59L376.479 11.3217H376.366V40.3405Z" fill="#1F1F1F"/>
<path d="M401.86 0.659515H429.328V7.25469H419.852V40.3405H411.335V7.25469H401.86V0.659515Z" fill="#1F1F1F"/>
<path d="M449.277 40.3405H440.873L452.153 0.659515H463.378L474.433 40.3405H465.464L463.208 31.5469H451.589L449.277 40.3405ZM461.403 25.4464L457.286 8.29893H457.173L453.281 25.4464H461.403Z" fill="#1F1F1F"/>
<path d="M504.627 12.8606H496.166C496.223 9.17828 495.602 5.93566 491.09 5.93566C485.788 5.93566 485.788 12.9155 485.788 20.6099C485.788 33.0308 487.029 35.2292 491.88 35.2292C493.29 35.2292 494.813 34.8995 496.11 34.4598V25.6662H491.485V19.5657H504.627V39.681C502.314 40.1206 496.505 41 493.121 41C478.794 41 477.159 35.2292 477.159 20.1702C477.159 10.1676 477.666 0 491.598 0C499.945 0 505.135 4.56166 504.627 12.8606Z" fill="#1F1F1F"/>
<path d="M533.806 40.3405H511.132V0.659515H533.355V6.76005H519.649V16.5429H532.283V22.6434H519.649V34.2399H533.806V40.3405Z" fill="#1F1F1F"/>
<path d="M546.44 40.3405H538.487V0.659515H549.994L560.823 28.1394H560.936V0.659515H568.889V40.3405H557.665L546.553 11.3217H546.44V40.3405Z" fill="#1F1F1F"/>
<path d="M588.799 41C574.754 41 574.754 30.8874 574.754 20.5C574.754 10.0027 574.754 0 588.799 0C597.485 0 600.982 4.67158 600.643 13.1903H592.296C592.296 7.91421 591.337 5.93566 588.799 5.93566C584.004 5.93566 583.384 10.3324 583.384 20.5C583.384 30.6676 584.004 35.0643 588.799 35.0643C592.747 35.0643 592.578 30.118 592.691 26.9853H601.095C601.095 37.5925 596.752 41 588.799 41Z" fill="#1F1F1F"/>
<path d="M613.09 40.3405V26.6005L602.429 0.659515H611.736L617.827 17.4223L624.314 0.659515H633L621.606 26.6005V40.3405H613.09Z" fill="#1F1F1F"/>
</svg>
